# xmcd
#
# Track frame offsets:
#	150
#	13500
#	30300
#	44400
#	59400
#	74775
#	91575
#	106350
#	123825
#	141900
#	156525
#	173250
#	185400
#	197025
#	213750
#	230625
#
# Disc length: 3242 seconds
#
# Revision: 2
# Processed by: cddbd v1.5.2PL0 Copyright (c) Steve Scherf et al.
# Submitted via: EasyCDDAExtractor 15.2.5.1
#
DISCID=d80ca810
DTITLE=陳思安 (2) - 餐廳小唱(台灣版)
DYEAR=1980
DGENRE=Alternative
TTITLE0=愛你一萬年
TTITLE1=欲走還留
TTITLE2=昨夜星辰
TTITLE3=當做沒有愛過我
TTITLE4=一封難回的信
TTITLE5=負心的人
TTITLE6=昨夜萝醒時
TTITLE7=夜夢
TTITLE8=愛苗
TTITLE9=恨你不回頭
TTITLE10=洒醉的探戈
TTITLE11=對你懷念特別多
TTITLE12=風妻妻意綿綿
TTITLE13=萍水相逢的人
TTITLE14=能不能留住你
TTITLE15=晚風
EXTD=
EXTT0=
EXTT1=
EXTT2=
EXTT3=
EXTT4=
EXTT5=
EXTT6=
EXTT7=
EXTT8=
EXTT9=
EXTT10=
EXTT11=
EXTT12=
EXTT13=
EXTT14=
EXTT15=
PLAYORDER=
